<svg version="1.0" xmlns="http://www.w3.org/2000/svg" width="16.000000pt" height="16.000000pt"
    viewBox="0 0 16.000000 16.000000" preserveAspectRatio="xMidYMid meet">
    <g transform="translate(0.000000,16.000000) scale(0.100000,-0.100000)" fill="#000000" stroke="none">
        <path d="M54 150 c-26 -10 -54 -48 -54 -73 0 -29 45 -67 80 -67 36 0 80 38 80
69 0 24 -38 68 -65 74 -11 3 -30 2 -41 -3z m70 -42 c15 -25 -4 -72 -32 -76
-27 -4 -69 23 -52 33 7 4 16 2 20 -5 4 -6 16 -10 26 -8 22 4 27 50 6 54 -7 1
-8 0 -2 -3 19 -9 -1 -23 -36 -23 -40 0 -42 6 -12 32 26 22 66 20 82 -4z" />
    </g>
</svg>