<svg width="36" height="36" viewBox="0 0 36 36" fill="none" xmlns="http://www.w3.org/2000/svg">
<rect width="36" height="36" rx="8.01303" fill="url(#paint0_linear_106_171)"/>
<path d="M16.8368 27.4169L16.8355 27.4157C13.6928 24.5663 11.1556 22.2609 9.39376 20.1057C7.64167 17.9625 6.74925 16.0763 6.74925 14.0802C6.74925 10.8211 9.28841 8.29213 12.5383 8.29213C14.3822 8.29213 16.1667 9.15499 17.3274 10.5072L18 11.2908L18.6726 10.5072C19.8333 9.15499 21.6178 8.29213 23.4617 8.29213C26.7116 8.29213 29.2507 10.8211 29.2507 14.0802C29.2507 16.0763 28.3583 17.9625 26.6062 20.1057C24.8444 22.2609 22.3072 24.5663 19.1645 27.4157L19.1632 27.4169L18 28.4757L16.8368 27.4169Z" stroke="#F9F7F1" stroke-width="1.77279"/>
<path fill-rule="evenodd" clip-rule="evenodd" d="M18 29.6743L19.7599 28.0724C26.0105 22.4052 30.1371 18.6553 30.1371 14.0802C30.1371 10.3304 27.2 7.40573 23.4617 7.40573C21.3499 7.40573 19.3229 8.3887 18 9.92991V29.6743Z" fill="#F9F7F1"/>
<path d="M15.9148 20.3351L21.4495 20.357C22.0837 20.3522 22.6896 20.0975 23.1357 19.6481C23.5817 19.1987 23.832 18.591 23.8321 17.9567C23.8322 17.3224 23.5822 16.7128 23.1363 16.2602C22.6904 15.8076 22.0846 15.5484 21.4503 15.539L20.1701 15.513L15.9063 15.5001L14.6308 15.518C13.9966 15.5235 13.391 15.779 12.9455 16.2289C12.5 16.6789 12.2505 17.287 12.2511 17.9212C12.2518 18.5555 12.5026 19.1648 12.9491 19.6169C13.3955 20.0689 14.0016 20.3273 14.6359 20.3359L14.6372 20.3364L15.9135 20.3347L15.9148 20.3351Z" fill="#F9F7F1"/>
<path d="M15.9148 20.3351L21.4495 20.357C22.0837 20.3522 22.6896 20.0975 23.1357 19.6481C23.5817 19.1987 23.832 18.591 23.8321 17.9567C23.8322 17.3224 23.5822 16.7128 23.1363 16.2602C22.6904 15.8076 22.0846 15.5484 21.4503 15.539L20.1701 15.513L15.9063 15.5001L14.6308 15.518C13.9966 15.5235 13.391 15.779 12.9455 16.2289C12.5 16.6789 12.2505 17.287 12.2511 17.9212C12.2518 18.5555 12.5026 19.1648 12.9491 19.6169C13.3955 20.0689 14.0016 20.3273 14.6359 20.3359L14.6372 20.3364L15.9135 20.3347L15.9148 20.3351Z" stroke="black"/>
<path d="M17.154 19.1247C17.1547 19.0847 17.1475 19.0449 17.1327 19.0077C17.1179 18.9705 17.0959 18.9366 17.0679 18.908C17.0399 18.8793 17.0065 18.8565 16.9696 18.8409C16.9327 18.8253 16.8932 18.8172 16.8532 18.817C16.8132 18.8168 16.7736 18.8246 16.7367 18.8399C16.6998 18.8552 16.6664 18.8777 16.6383 18.9061C16.6103 18.9345 16.5882 18.9682 16.5733 19.0053C16.5585 19.0423 16.5511 19.082 16.5518 19.122C16.5518 19.1616 16.5596 19.2008 16.5747 19.2374C16.5898 19.274 16.612 19.3073 16.64 19.3354C16.6965 19.3921 16.7731 19.4241 16.853 19.4244C16.9329 19.4247 17.0096 19.3933 17.0661 19.337C17.1226 19.2807 17.154 19.2046 17.154 19.1247ZM18.3588 19.1279C18.3595 19.0879 18.3522 19.0482 18.3373 19.011C18.3225 18.9738 18.3004 18.9399 18.2724 18.9113C18.2443 18.8827 18.2109 18.86 18.174 18.8444C18.1371 18.8288 18.0975 18.8207 18.0576 18.8206C18.0176 18.8205 17.978 18.8283 17.9411 18.8437C17.9042 18.859 17.8708 18.8816 17.8428 18.91C17.8148 18.9385 17.7927 18.9722 17.7779 19.0093C17.7631 19.0464 17.7559 19.0861 17.7566 19.1261C17.758 19.205 17.7904 19.2804 17.8467 19.3359C17.903 19.3914 17.9789 19.4226 18.0578 19.4229C18.1368 19.4231 18.2126 19.3923 18.2689 19.3372C18.3251 19.282 18.3574 19.2068 18.3588 19.1279ZM19.5636 19.1311C19.5635 19.0915 19.5557 19.0523 19.5405 19.0158C19.5253 18.9792 19.5031 18.9459 19.4751 18.9178C19.4471 18.8898 19.4138 18.8675 19.3773 18.8523C19.3407 18.8371 19.3015 18.8292 19.2619 18.8291C19.2224 18.829 19.1832 18.8367 19.1467 18.8518C19.1101 18.8668 19.0769 18.8889 19.049 18.9169C19.021 18.9448 18.9989 18.9779 18.9838 19.0145C18.9687 19.051 18.9609 19.0901 18.961 19.1297C18.9624 19.2087 18.9947 19.284 19.0511 19.3395C19.1074 19.395 19.1832 19.4263 19.2622 19.4265C19.3412 19.4268 19.4169 19.396 19.4732 19.3408C19.5295 19.2856 19.5618 19.2105 19.5632 19.1315L19.5636 19.1311ZM17.1534 16.7146C17.1533 16.6751 17.1455 16.6359 17.1303 16.5993C17.1151 16.5627 17.0929 16.5294 17.0649 16.5014C17.0368 16.4733 17.0036 16.4511 16.967 16.4358C16.9305 16.4206 16.8913 16.4127 16.8517 16.4126C16.8121 16.4125 16.773 16.4202 16.7364 16.4353C16.6999 16.4504 16.6667 16.4725 16.6387 16.5004C16.6108 16.5283 16.5886 16.5615 16.5735 16.598C16.5584 16.6345 16.5507 16.6737 16.5507 16.7132C16.5521 16.7922 16.5845 16.8675 16.6408 16.9231C16.6972 16.9786 16.773 17.0098 16.852 17.0101C16.9309 17.0103 17.0067 16.9795 17.063 16.9243C17.1193 16.8692 17.1516 16.794 17.1529 16.7151L17.1534 16.7146ZM18.3577 16.7191C18.3577 16.6392 18.326 16.5625 18.2695 16.5057C18.213 16.449 18.1364 16.417 18.0565 16.4167C17.9766 16.4164 17.8999 16.4479 17.8434 16.5042C17.7869 16.5605 17.7551 16.637 17.7551 16.7169C17.7565 16.7958 17.7889 16.8712 17.8452 16.9267C17.9016 16.9822 17.9774 17.0135 18.0563 17.0137C18.1353 17.0139 18.2111 16.9832 18.2674 16.928C18.3237 16.8728 18.3564 16.7981 18.3577 16.7191ZM19.5621 16.7228C19.5628 16.6828 19.5556 16.643 19.5408 16.6058C19.526 16.5686 19.504 16.5347 19.476 16.5061C19.448 16.4774 19.4146 16.4546 19.3777 16.439C19.3409 16.4234 19.3013 16.4153 19.2613 16.4151C19.2213 16.4149 19.1817 16.4227 19.1448 16.438C19.1079 16.4533 19.0745 16.4758 19.0464 16.5042C19.0184 16.5326 18.9963 16.5663 18.9814 16.6034C18.9666 16.6404 18.9593 16.6801 18.9599 16.7201C18.9599 16.7597 18.9677 16.7989 18.9828 16.8355C18.9979 16.8721 19.0201 16.9054 19.0481 16.9335C19.1046 16.9902 19.1812 17.0222 19.2611 17.0225C19.341 17.0228 19.4177 16.9914 19.4742 16.9351C19.5307 16.8788 19.5625 16.8023 19.5625 16.7223L19.5621 16.7228ZM17.1539 17.9199C17.1539 17.8803 17.1461 17.8411 17.131 17.8045C17.1158 17.7679 17.0937 17.7346 17.0657 17.7065C17.0377 17.6784 17.0045 17.6561 16.968 17.6408C16.9314 17.6255 16.8922 17.6176 16.8527 17.6174C16.8131 17.6173 16.7739 17.6249 16.7373 17.6399C16.7008 17.6549 16.6676 17.677 16.6396 17.7049C16.6116 17.7328 16.5894 17.7659 16.5742 17.8024C16.5591 17.8389 16.5513 17.8781 16.5513 17.9176C16.5527 17.9966 16.585 18.0719 16.6414 18.1274C16.6977 18.183 16.7735 18.2142 16.8525 18.2144C16.9314 18.2147 17.0072 18.1839 17.0635 18.1287C17.1198 18.0735 17.1525 17.9988 17.1539 17.9199ZM18.3587 17.9231C18.3587 17.8835 18.3508 17.8443 18.3357 17.8076C18.3205 17.771 18.2983 17.7377 18.2703 17.7096C18.2423 17.6815 18.209 17.6592 18.1724 17.644C18.1358 17.6287 18.0966 17.6208 18.057 17.6207C18.0174 17.6205 17.9782 17.6282 17.9417 17.6433C17.9051 17.6583 17.8718 17.6804 17.8439 17.7083C17.8159 17.7362 17.7937 17.7694 17.7785 17.8059C17.7634 17.8425 17.7556 17.8817 17.7556 17.9213C17.7556 17.9608 17.7634 18 17.7785 18.0367C17.7937 18.0733 17.8159 18.1066 17.8438 18.1346C17.9003 18.1914 17.977 18.2234 18.0569 18.2237C18.1368 18.224 18.2134 18.1925 18.2699 18.1362C18.3265 18.0799 18.3582 18.0034 18.3583 17.9235L18.3587 17.9231ZM19.5626 17.9272C19.5633 17.8872 19.556 17.8474 19.5412 17.8103C19.5263 17.7731 19.5043 17.7392 19.4762 17.7106C19.4482 17.682 19.4147 17.6592 19.3779 17.6436C19.341 17.6281 19.3014 17.62 19.2614 17.6199C19.2214 17.6197 19.1818 17.6276 19.145 17.6429C19.1081 17.6583 19.0747 17.6808 19.0467 17.7093C19.0186 17.7377 18.9966 17.7715 18.9818 17.8086C18.967 17.8457 18.9597 17.8853 18.9604 17.9253C18.9618 18.0043 18.9942 18.0796 19.0505 18.1352C19.1069 18.1907 19.1827 18.2219 19.2617 18.2222C19.3406 18.2224 19.4164 18.1916 19.4727 18.1364C19.529 18.0813 19.5613 18.0061 19.5626 17.9272Z" fill="#F9F7F1"/>
<path d="M23.2554 17.9533C23.2555 18.4324 23.0654 18.8913 22.7267 19.229C22.3881 19.5668 21.9287 19.7557 21.4496 19.7544L20.4731 19.751L20.4719 16.1221L21.448 16.1412C21.9271 16.1427 22.3867 16.3345 22.7256 16.6743C23.0645 17.0141 23.2551 17.4741 23.2554 17.9533ZM19.8693 16.1147L19.8709 19.7483L16.2143 19.7338L16.2127 16.1037L19.8693 16.1147ZM15.6106 16.1078L15.6121 19.7329L14.6352 19.7333C14.1662 19.7169 13.7213 19.5187 13.3946 19.1807C13.068 18.8426 12.8853 18.3912 12.8852 17.9219C12.885 17.4526 13.0674 17.0023 13.3938 16.6663C13.7202 16.3303 14.165 16.1349 14.634 16.1215L14.6391 16.1215L15.6106 16.1078ZM15.9148 20.3351L21.4495 20.357C22.0837 20.3522 22.6896 20.0975 23.1357 19.6481C23.5817 19.1987 23.832 18.591 23.8321 17.9567C23.8322 17.3224 23.5822 16.7128 23.1363 16.2602C22.6904 15.8076 22.0846 15.5484 21.4503 15.539L20.1701 15.513L15.9063 15.5001L14.6308 15.518C13.9966 15.5235 13.391 15.779 12.9455 16.2289C12.5 16.6789 12.2505 17.287 12.2511 17.9212C12.2518 18.5555 12.5026 19.1648 12.9491 19.6169C13.3955 20.0689 14.0016 20.3273 14.6359 20.3359L14.6372 20.3364L15.9135 20.3347L15.9148 20.3351Z" fill="#FBABD1"/>
<path d="M23.2554 17.9533C23.2555 18.4324 23.0654 18.8913 22.7267 19.229C22.3881 19.5668 21.9287 19.7557 21.4496 19.7544L20.4731 19.751L20.4719 16.1221L21.448 16.1412C21.9271 16.1427 22.3867 16.3345 22.7256 16.6743C23.0645 17.0141 23.2551 17.4741 23.2554 17.9533ZM19.8693 16.1147L19.8709 19.7483L16.2143 19.7338L16.2127 16.1037L19.8693 16.1147ZM15.6106 16.1078L15.6121 19.7329L14.6352 19.7333C14.1662 19.7169 13.7213 19.5187 13.3946 19.1807C13.068 18.8426 12.8853 18.3912 12.8852 17.9219C12.885 17.4526 13.0674 17.0023 13.3938 16.6663C13.7202 16.3303 14.165 16.1349 14.634 16.1215L14.6391 16.1215L15.6106 16.1078ZM15.9148 20.3351L21.4495 20.357C22.0837 20.3522 22.6896 20.0975 23.1357 19.6481C23.5817 19.1987 23.832 18.591 23.8321 17.9567C23.8322 17.3224 23.5822 16.7128 23.1363 16.2602C22.6904 15.8076 22.0846 15.5484 21.4503 15.539L20.1701 15.513L15.9063 15.5001L14.6308 15.518C13.9966 15.5235 13.391 15.779 12.9455 16.2289C12.5 16.6789 12.2505 17.287 12.2511 17.9212C12.2518 18.5555 12.5026 19.1648 12.9491 19.6169C13.3955 20.0689 14.0016 20.3273 14.6359 20.3359L14.6372 20.3364L15.9135 20.3347L15.9148 20.3351Z" stroke="#F9F7F1"/>
<path d="M17.154 19.1247C17.1547 19.0847 17.1475 19.0449 17.1327 19.0077C17.1179 18.9705 17.0959 18.9366 17.0679 18.908C17.0399 18.8793 17.0065 18.8565 16.9696 18.8409C16.9327 18.8253 16.8932 18.8172 16.8532 18.817C16.8132 18.8168 16.7736 18.8246 16.7367 18.8399C16.6998 18.8552 16.6664 18.8777 16.6383 18.9061C16.6103 18.9345 16.5882 18.9682 16.5733 19.0053C16.5585 19.0423 16.5511 19.082 16.5518 19.122C16.5518 19.1616 16.5596 19.2008 16.5747 19.2374C16.5898 19.274 16.612 19.3073 16.64 19.3354C16.6965 19.3921 16.7731 19.4241 16.853 19.4244C16.9329 19.4247 17.0096 19.3933 17.0661 19.337C17.1226 19.2807 17.154 19.2046 17.154 19.1247ZM18.3588 19.1279C18.3595 19.0879 18.3522 19.0482 18.3373 19.011C18.3225 18.9738 18.3004 18.9399 18.2724 18.9113C18.2443 18.8827 18.2109 18.86 18.174 18.8444C18.1371 18.8288 18.0975 18.8207 18.0576 18.8206C18.0176 18.8205 17.978 18.8283 17.9411 18.8437C17.9042 18.859 17.8708 18.8816 17.8428 18.91C17.8148 18.9385 17.7927 18.9722 17.7779 19.0093C17.7631 19.0464 17.7559 19.0861 17.7566 19.1261C17.758 19.205 17.7904 19.2804 17.8467 19.3359C17.903 19.3914 17.9789 19.4226 18.0578 19.4229C18.1368 19.4231 18.2126 19.3923 18.2689 19.3372C18.3251 19.282 18.3574 19.2068 18.3588 19.1279ZM19.5636 19.1311C19.5635 19.0915 19.5557 19.0523 19.5405 19.0158C19.5253 18.9792 19.5031 18.9459 19.4751 18.9178C19.4471 18.8898 19.4138 18.8675 19.3773 18.8523C19.3407 18.8371 19.3015 18.8292 19.2619 18.8291C19.2224 18.829 19.1832 18.8367 19.1467 18.8518C19.1101 18.8668 19.0769 18.8889 19.049 18.9169C19.021 18.9448 18.9989 18.9779 18.9838 19.0145C18.9687 19.051 18.9609 19.0901 18.961 19.1297C18.9624 19.2087 18.9947 19.284 19.0511 19.3395C19.1074 19.395 19.1832 19.4263 19.2622 19.4265C19.3412 19.4268 19.4169 19.396 19.4732 19.3408C19.5295 19.2856 19.5618 19.2105 19.5632 19.1315L19.5636 19.1311ZM17.1534 16.7146C17.1533 16.6751 17.1455 16.6359 17.1303 16.5993C17.1151 16.5627 17.0929 16.5294 17.0649 16.5014C17.0368 16.4733 17.0036 16.4511 16.967 16.4358C16.9305 16.4206 16.8913 16.4127 16.8517 16.4126C16.8121 16.4125 16.773 16.4202 16.7364 16.4353C16.6999 16.4504 16.6667 16.4725 16.6387 16.5004C16.6108 16.5283 16.5886 16.5615 16.5735 16.598C16.5584 16.6345 16.5507 16.6737 16.5507 16.7132C16.5521 16.7922 16.5845 16.8675 16.6408 16.9231C16.6972 16.9786 16.773 17.0098 16.852 17.0101C16.9309 17.0103 17.0067 16.9795 17.063 16.9243C17.1193 16.8692 17.1516 16.794 17.1529 16.7151L17.1534 16.7146ZM18.3577 16.7191C18.3577 16.6392 18.326 16.5625 18.2695 16.5057C18.213 16.449 18.1364 16.417 18.0565 16.4167C17.9766 16.4164 17.8999 16.4479 17.8434 16.5042C17.7869 16.5605 17.7551 16.637 17.7551 16.7169C17.7565 16.7958 17.7889 16.8712 17.8452 16.9267C17.9016 16.9822 17.9774 17.0135 18.0563 17.0137C18.1353 17.0139 18.2111 16.9832 18.2674 16.928C18.3237 16.8728 18.3564 16.7981 18.3577 16.7191ZM19.5621 16.7228C19.5628 16.6828 19.5556 16.643 19.5408 16.6058C19.526 16.5686 19.504 16.5347 19.476 16.5061C19.448 16.4774 19.4146 16.4546 19.3777 16.439C19.3409 16.4234 19.3013 16.4153 19.2613 16.4151C19.2213 16.4149 19.1817 16.4227 19.1448 16.438C19.1079 16.4533 19.0745 16.4758 19.0464 16.5042C19.0184 16.5326 18.9963 16.5663 18.9814 16.6034C18.9666 16.6404 18.9593 16.6801 18.9599 16.7201C18.9599 16.7597 18.9677 16.7989 18.9828 16.8355C18.9979 16.8721 19.0201 16.9054 19.0481 16.9335C19.1046 16.9902 19.1812 17.0222 19.2611 17.0225C19.341 17.0228 19.4177 16.9914 19.4742 16.9351C19.5307 16.8788 19.5625 16.8023 19.5625 16.7223L19.5621 16.7228ZM17.1539 17.9199C17.1539 17.8803 17.1461 17.8411 17.131 17.8045C17.1158 17.7679 17.0937 17.7346 17.0657 17.7065C17.0377 17.6784 17.0045 17.6561 16.968 17.6408C16.9314 17.6255 16.8922 17.6176 16.8527 17.6174C16.8131 17.6173 16.7739 17.6249 16.7373 17.6399C16.7008 17.6549 16.6676 17.677 16.6396 17.7049C16.6116 17.7328 16.5894 17.7659 16.5742 17.8024C16.5591 17.8389 16.5513 17.8781 16.5513 17.9176C16.5527 17.9966 16.585 18.0719 16.6414 18.1274C16.6977 18.183 16.7735 18.2142 16.8525 18.2144C16.9314 18.2147 17.0072 18.1839 17.0635 18.1287C17.1198 18.0735 17.1525 17.9988 17.1539 17.9199ZM18.3587 17.9231C18.3587 17.8835 18.3508 17.8443 18.3357 17.8076C18.3205 17.771 18.2983 17.7377 18.2703 17.7096C18.2423 17.6815 18.209 17.6592 18.1724 17.644C18.1358 17.6287 18.0966 17.6208 18.057 17.6207C18.0174 17.6205 17.9782 17.6282 17.9417 17.6433C17.9051 17.6583 17.8718 17.6804 17.8439 17.7083C17.8159 17.7362 17.7937 17.7694 17.7785 17.8059C17.7634 17.8425 17.7556 17.8817 17.7556 17.9213C17.7556 17.9608 17.7634 18 17.7785 18.0367C17.7937 18.0733 17.8159 18.1066 17.8438 18.1346C17.9003 18.1914 17.977 18.2234 18.0569 18.2237C18.1368 18.224 18.2134 18.1925 18.2699 18.1362C18.3265 18.0799 18.3582 18.0034 18.3583 17.9235L18.3587 17.9231ZM19.5626 17.9272C19.5633 17.8872 19.556 17.8474 19.5412 17.8103C19.5263 17.7731 19.5043 17.7392 19.4762 17.7106C19.4482 17.682 19.4147 17.6592 19.3779 17.6436C19.341 17.6281 19.3014 17.62 19.2614 17.6199C19.2214 17.6197 19.1818 17.6276 19.145 17.6429C19.1081 17.6583 19.0747 17.6808 19.0467 17.7093C19.0186 17.7377 18.9966 17.7715 18.9818 17.8086C18.967 17.8457 18.9597 17.8853 18.9604 17.9253C18.9618 18.0043 18.9942 18.0796 19.0505 18.1352C19.1069 18.1907 19.1827 18.2219 19.2617 18.2222C19.3406 18.2224 19.4164 18.1916 19.4727 18.1364C19.529 18.0813 19.5613 18.0061 19.5626 17.9272Z" fill="#FBABD1"/>
<defs>
<linearGradient id="paint0_linear_106_171" x1="-5.68053e-09" y1="18.5143" x2="36" y2="18.6943" gradientUnits="userSpaceOnUse">
<stop stop-color="#AAE3F6"/>
<stop offset="0.988702" stop-color="#FEC7E1"/>
</linearGradient>
</defs>
</svg>
